# xmcd CD database file generated by OrangeCD 5.2
#
# Track frame offsets:
#	150
#	10585
#	28035
#	37560
#	50085
#	66685
#	81460
#	104207
#	117235
#	131710
#	141782
#	161460
#	177010
#	189932
#
# Disc length: 2662 seconds
#
# Revision: 0
# Processed by: cddbd v1.5.1PL0 Copyright (c) Steve Scherf et al.
# Submitted via: OrangeCD 5.2
#
DISCID=bf0a640e
DTITLE=Ferlin Husky - Truck Drivin' Son Of A Gun
DYEAR=1997
DGENRE=Country
TTITLE0=Six Days On The Road
TTITLE1=Convoy
TTITLE2=Truck Drivin' Sun Of A Gun
TTITLE3=Don't Fall A Sleep At The Wheel
TTITLE4=Giddy-Up Go
TTITLE5=Truck Driver's Blues
TTITLE6=Teddy Bear
TTITLE7=Drunken Driver
TTITLE8=Hello, I'm A Truck
TTITLE9=Wings Of A Dove
TTITLE10=Little Joe
TTITLE11=Phantom 309
TTITLE12=Me And Old CB
TTITLE13=Lookin' At The World Through A Windshield
EXTD=
EXTT0=
EXTT1=
EXTT2=
EXTT3=
EXTT4=
EXTT5=
EXTT6=
EXTT7=
EXTT8=
EXTT9=
EXTT10=
EXTT11=
EXTT12=
EXTT13=
PLAYORDER=
